<?xml version="1.0" encoding="utf-8"?>
<!-- Generator: Adobe Illustrator 27.3.1, SVG Export Plug-In . SVG Version: 6.00 Build 0)  -->
<svg version="1.1" id="Layer_1" xmlns="http://www.w3.org/2000/svg" xmlns:xlink="http://www.w3.org/1999/xlink" x="0px" y="0px"
	 viewBox="0 0 3368.4 1796.9" style="enable-background:new 0 0 3368.4 1796.9;" xml:space="preserve">
<style type="text/css">
	.st0{fill:#FFFFFF;}
</style>
<g>
	<g>
		<g>
			<path class="st0" d="M613.5,1535.4c0,62-25.5,84.5-95.1,84.5H312.2c0.9-19.1,2.5-38.2,3.8-57.3h198.6c31,0,39.9-7.2,39.9-32.3
				s-8.5-32.2-38.6-32.2H397.5c-70,0-92.5-25.1-92.5-78.5v-9.8c0-58.2,23.3-81.9,94.2-81.9h204.6c-2.1,19.5-4.7,38.6-7.2,58.2H399.2
				c-28,0-36.1,8.9-36.1,31.8s8.1,32.3,36.1,32.3h116.7c72.6,0,97.6,23.8,97.6,75.1V1535.4L613.5,1535.4z"/>
			<path class="st0" d="M746.8,1619.9v-234.3H640.3v-57.7h270.3v57.7H804.1v234.3H746.8L746.8,1619.9z"/>
			<path class="st0" d="M945.5,1619.9v-292H1226v57.7h-223.2v64.5h216.9v47.1h-216.9v65.4H1226v57.3H945.5L945.5,1619.9z"/>
			<path class="st0" d="M1521.4,1619.9l-101-95.5h-92.1v95.5h-57.7v-292h238.5c62,0,83.6,24.2,83.6,90.4v17.8
				c0,71.3-26.7,87.4-98.9,87.4l108.2,96.3L1521.4,1619.9L1521.4,1619.9z M1535.8,1428.1c0-28.4-3.4-42-28.4-42h-179.1v90.4h179.1
				c20.4,0,28.4-8.9,28.4-34.4V1428.1z"/>
			<path class="st0" d="M2260.3,1619.9l-101-95.5h-92.1v95.5h-57.7v-292H2248c62,0,83.6,24.2,83.6,90.4v17.8
				c0,71.3-26.7,87.4-98.9,87.4l108.2,96.3L2260.3,1619.9L2260.3,1619.9z M2274.8,1428.1c0-28.4-3.4-42-28.4-42h-179.1v90.4h179.1
				c20.4,0,28.4-8.9,28.4-34.4V1428.1z"/>
			<path class="st0" d="M2466.6,1619.9c-70.9,0-91.2-22.9-91.2-94.6v-102.7c0-71.7,20.4-94.6,91.2-94.6h154.1
				c69.6,0,91.2,22.9,91.2,94.6v102.7c0,71.7-21.6,94.6-91.2,94.6H2466.6z M2654.6,1423c0-28.9-8.9-37.3-34.4-37.3h-153.6
				c-25.5,0-34.4,8.5-34.4,37.3v102.7c0,28.9,8.1,36.9,34.4,36.9h153.6c26.3,0,34.4-8.1,34.4-36.9V1423z"/>
			<path class="st0" d="M3063.4,1535.4c0,62-25.5,84.5-95.1,84.5H2762c0.9-19.1,2.6-38.2,3.8-57.3h198.6c31,0,39.9-7.2,39.9-32.3
				c0-24.6-8.5-32.2-38.6-32.2h-118.4c-70,0-92.5-25.1-92.5-78.5v-9.8c0-58.2,23.3-81.9,94.2-81.9h204.6
				c-2.1,19.5-4.7,38.6-7.2,58.2H2849c-28,0-36.1,8.9-36.1,31.8s8.1,32.3,36.1,32.3h116.7c72.6,0,97.6,23.8,97.6,75.1L3063.4,1535.4
				L3063.4,1535.4z"/>
		</g>
		<g>
			<path class="st0" d="M1648.7,1327.9v292h57.7v-292H1648.7z"/>
			<polygon class="st0" points="1971.9,1618.6 1890,1618.6 1750.7,1508.8 1706.4,1544.2 1706.4,1472.1 1869.3,1327.9 1952,1327.9 
				1790.2,1473.2 			"/>
		</g>
	</g>
	<g>
		<path class="st0" d="M2244.4,1147.3l-215-370.2L1682.6,177l-483,834h686.8l25.6,42.8h-663.9h-69.6h-0.9l-86,148.4h970
			l-140.3-237.9h-625.9l331.4-588.4l476.2,826.3h103.8h69.4h0.5L2244.4,1147.3L2244.4,1147.3z M1194.3,1147.3l22.2-38.7h728.3
			l23.2,38.7H1194.3z M2137.5,1147.3l-479.9-826.2l18.5-32.8l498.9,859H2137.5L2137.5,1147.3z"/>
		<path class="st0" d="M1484.2,689.5l-138.7,240.3H1623h277.5l-138.7-240.3l-138.7-240.3L1484.2,689.5L1484.2,689.5z M1814.7,880.4
			h-191.8h-191.8l95.9-166.1l95.9-166.1l95.9,166.1L1814.7,880.4z"/>
		<path class="st0" d="M1558.9,737.9l-64,110.8h128h128l-64-110.8l-64-110.8L1558.9,737.9L1558.9,737.9z M1679.5,807.5h-56.6h-56.6
			l28.3-49l28.3-49l28.3,49L1679.5,807.5L1679.5,807.5z"/>
	</g>
</g>
</svg>
