<svg id="Layer_1" data-name="Layer 1" xmlns="http://www.w3.org/2000/svg" viewBox="0 0 2687.3 3305.74"><defs><style>.cls-1,.cls-2{fill:#fff;}.cls-2{font-size:597.91px;font-family:GokuStencil-Regular, Goku Stencil;}</style></defs><path class="cls-1" d="M1844,2134a1010.31,1010.31,0,0,1-281.49,144.79c123.26-62.25,209.15-188.36,221.28-328,18.5-213.42-137.62-429.5-360.94-451.47v645.9a501.7,501.7,0,0,1-123-230.19c-51.49-221.47,61.94-402.34,79.33-429.07q-188.43,211.15-376.79,422.38c2.11-50.49,12.63-148.75,69.37-248.07,96.84-169.43,254.2-212.62,289.53-221.28,0,0-539-8.66-560.56-.37,4.95-4.7,35.83-38.8,43-46.53,115.53-130.26,306.55-102.91,335.14-98.33,88.86,14.17,157.42,55.07,202.29,89.35-24.94-37.37-86.14-139.78-89.23-286-4.34-204.88,108.72-339,130.87-364.29v650.29c3.09-33.23,21.6-197.64,150.68-317.31,114.66-106.25,241.76-108,275.67-107.3q-188.43,211.26-376.78,422.39c31.18,4.82,222.51,38,337.11,232.41C1898.93,1764.79,1910.44,1961.26,1844,2134Z"/><path class="cls-1" d="M634.43,990.63l-.88,1.15c-115.82,154.42-177,338.32-177,531.84,0,491.67,398,891.68,887.13,891.68s887.13-400,887.13-891.68c0-193.52-61.21-377.42-177-531.84L1343.65,86Zm1459.87,533c0,416.42-336.74,755.2-750.65,755.2S593,1940,593,1523.62c0-163.51,51.62-318.88,149.3-449.37l601.35-767.08L1945,1074.25C2042.68,1204.73,2094.3,1360.11,2094.3,1523.62Z"/><circle class="cls-1" cx="1054.76" cy="1035.92" r="119.39"/><path class="cls-1" d="M541.52,3218.88v-46.11h30.21v5.11H547.26v14.87h24v5.12h-24v21Z"/><path class="cls-1" d="M600.29,3218.88v-46.11H630.5v5.11H606v14.87h24v5.12H606v15.9H630.5v5.11Z"/><path class="cls-1" d="M660.37,3218.88v-46.11h30.22v5.11H666.11v14.87h24v5.12h-24v15.9h24.48v5.11Z"/><path class="cls-1" d="M720.46,3218.88v-46.11h5.74v41h21.43v5.11Z"/><path class="cls-1" d="M826.45,3218.88v-41H811.86v-5.11h35v5.11H832.19v41Z"/><path class="cls-1" d="M907.91,3218.88v-21.16h-27v21.16H875.2v-46.11h5.74v19.84h27v-19.84h5.74v46.11Z"/><path class="cls-1" d="M945.17,3218.88v-46.11h30.22v5.11H950.91v14.87h24v5.12h-24v15.9h24.48v5.11Z"/><path class="cls-1" d="M1042,3195.86c0-14.31,10.58-23.86,23.72-23.86a22,22,0,0,1,17.91,8.64l-4.56,2.84a17,17,0,0,0-13.35-6.36c-10.1,0-17.77,7.74-17.77,18.74s7.67,18.81,17.77,18.81a18.21,18.21,0,0,0,12.38-5v-9.4h-15.84v-5.12h21.58v16.66a24,24,0,0,1-18.12,8C1052.55,3219.79,1042,3210.18,1042,3195.86Z"/><path class="cls-1" d="M1112,3195.86c0-13.63,9.19-23.86,22.88-23.86s22.89,10.23,22.89,23.86-9.26,23.85-22.89,23.85S1112,3209.48,1112,3195.86Zm39.82,0c0-10.79-6.63-18.74-16.94-18.74s-16.94,8-16.94,18.74,6.57,18.74,16.94,18.74S1151.84,3206.57,1151.84,3195.86Z"/><path class="cls-1" d="M1185.66,3195.86c0-13.63,9.19-23.86,22.88-23.86s22.89,10.23,22.89,23.86-9.27,23.85-22.89,23.85S1185.66,3209.48,1185.66,3195.86Zm39.82,0c0-10.79-6.63-18.74-16.94-18.74s-16.94,8-16.94,18.74,6.57,18.74,16.94,18.74S1225.48,3206.57,1225.48,3195.86Z"/><path class="cls-1" d="M1261.16,3218.88v-46.11h15.76c14.32,0,23.65,10,23.65,23.09s-9.33,23-23.65,23Zm33.46-23c0-10-6.29-18-17.7-18h-10v35.89h10C1288.13,3213.77,1294.62,3205.75,1294.62,3195.86Z"/><path class="cls-1" d="M1362.94,3218.88,1336,3182.1v36.78h-5.74v-46.11h5.88l26.55,36v-36h5.74v46.11Z"/><path class="cls-1" d="M1400,3218.88v-46.11h30.22v5.11h-24.48v14.87h24v5.12h-24v15.9h24.48v5.11Z"/><path class="cls-1" d="M1457.32,3212.39l3.39-4.36a19.52,19.52,0,0,0,14.52,6.57c8.23,0,10.85-4.42,10.85-7.95,0-11.9-27.31-5.32-27.31-21.79,0-7.6,6.78-12.79,15.84-12.79,7.05,0,12.51,2.35,16.38,6.43l-3.45,4.22a17.67,17.67,0,0,0-13.35-5.53c-5.53,0-9.47,3-9.47,7.33,0,10.38,27.31,4.42,27.31,21.64,0,6.71-4.56,13.55-17,13.55C1467,3219.71,1461.12,3216.67,1457.32,3212.39Z"/><path class="cls-1" d="M1518.58,3212.39,1522,3208a19.52,19.52,0,0,0,14.52,6.57c8.23,0,10.86-4.42,10.86-7.95,0-11.9-27.32-5.32-27.32-21.79,0-7.6,6.78-12.79,15.84-12.79,7.05,0,12.51,2.35,16.38,6.43l-3.45,4.22a17.67,17.67,0,0,0-13.35-5.53c-5.53,0-9.47,3-9.47,7.33,0,10.38,27.31,4.42,27.31,21.64,0,6.71-4.56,13.55-17,13.55C1528.26,3219.71,1522.38,3216.67,1518.58,3212.39Z"/><path class="cls-1" d="M1619.32,3195.86c0-13.63,9.2-23.86,22.89-23.86s22.89,10.23,22.89,23.86-9.27,23.85-22.89,23.85S1619.32,3209.48,1619.32,3195.86Zm39.83,0c0-10.79-6.64-18.74-16.94-18.74s-16.94,8-16.94,18.74,6.57,18.74,16.94,18.74S1659.15,3206.57,1659.15,3195.86Z"/><path class="cls-1" d="M1694.83,3218.88v-46.11H1725v5.11h-24.47v14.87h24v5.12h-24v21Z"/><path class="cls-1" d="M1824.82,3218.88l-26.9-36.78v36.78h-5.74v-46.11h5.88l26.55,36v-36h5.74v46.11Z"/><path class="cls-1" d="M1894.79,3218.88l-4.08-10.23h-23l-4.08,10.23h-6.56l18.53-46.11h7.12l18.6,46.11Zm-15.56-40.17-9.82,24.83H1889Z"/><path class="cls-1" d="M1934.89,3218.88v-41H1920.3v-5.11h35v5.11h-14.66v41Z"/><path class="cls-1" d="M1983.64,3201v-28.2h5.74v28.07c0,8.43,4.56,13.76,13.07,13.76s13.07-5.33,13.07-13.76v-28.07h5.74v28.14c0,11.48-6.3,18.8-18.81,18.8S1983.64,3212.32,1983.64,3201Z"/><path class="cls-1" d="M2079.47,3218.88l-11.75-18.32h-9.2v18.32h-5.74v-46.11h18.53c8.44,0,14.46,5.39,14.46,13.89,0,8.3-5.67,12.86-12,13.42l12.45,18.8Zm.35-32.22c0-5.19-3.74-8.78-9.2-8.78h-12.1v17.63h12.1C2076.08,3195.51,2079.82,3191.85,2079.82,3186.66Z"/><path class="cls-1" d="M2115.56,3218.88v-46.11h30.22v5.11H2121.3v14.87h24v5.12h-24v15.9h24.48v5.11Z"/><text class="cls-2" transform="translate(618.39 3011.78)">Kalpa</text></svg>